<svg xmlns="http://www.w3.org/2000/svg" viewBox="0 0 200 200">
  <!-- Blob Shape 1 -->
  <path fill="currentColor" d="M45.2,-62.3C58.1,-53.3,68.1,-38.3,73.7,-21.3C79.3,-4.3,80.5,14.7,73.4,30.3C66.3,45.9,50.9,58.1,33.5,67.3C16.1,76.5,-3.3,82.7,-20.3,77.3C-37.3,71.9,-51.9,55,-62.3,36.3C-72.7,17.6,-78.9,-2.9,-74.2,-20.6C-69.5,-38.3,-53.9,-53.2,-37.1,-61.4C-20.3,-69.6,-2.3,-71.2,15.1,-65.6C32.5,-60,49.9,-47.3,45.2,-62.3Z" transform="translate(100 100)">
    <animateTransform 
      attributeName="transform"
      type="rotate"
      from="0 100 100"
      to="360 100 100"
      dur="60s"
      repeatCount="indefinite"/>
  </path>
  
  <!-- Blob Shape 2 -->
  <path fill="currentColor" d="M32.1,-49.1C42.7,-40.5,53.3,-33.9,60.2,-23.5C67.1,-13.1,70.4,1.1,66.1,12.9C61.8,24.7,49.9,34.1,37.1,42.7C24.3,51.3,10.6,59.1,-3.5,63.8C-17.6,68.5,-35.2,70.1,-47.3,62.8C-59.4,55.5,-66,39.3,-68.1,22.8C-70.2,6.3,-67.8,-10.5,-59.3,-23.4C-50.8,-36.4,-36.2,-45.5,-22.4,-53.3C-8.6,-61.1,4.5,-67.6,16.7,-64.6C28.9,-61.6,40.2,-49.1,32.1,-49.1Z" transform="translate(100 100) scale(0.8)">
    <animateTransform 
      attributeName="transform"
      type="rotate"
      from="360 100 100"
      to="0 100 100"
      dur="45s"
      repeatCount="indefinite"/>
  </path>
</svg>